<svg xmlns="http://www.w3.org/2000/svg" viewBox="0 0 128 128" role="img" aria-label="G-Buddy icon">
  <defs>
    <linearGradient id="bg" x1="0" y1="0" x2="1" y2="1">
      <stop offset="0%" stop-color="#120f1c"/>
      <stop offset="100%" stop-color="#2a1d3d"/>
    </linearGradient>
    <linearGradient id="leaf" x1="0" y1="0" x2="1" y2="1">
      <stop offset="0%" stop-color="#d6b3ff"/>
      <stop offset="100%" stop-color="#8b3dff"/>
    </linearGradient>
  </defs>
  <rect width="128" height="128" rx="28" fill="url(#bg)"/>
  <path d="M65 22c-9 16-19 24-35 29 18 2 27 7 34 18 3-12 11-20 25-27-8-2-18-8-24-20z" fill="url(#leaf)"/>
  <path d="M46 74c8 9 18 14 31 15-8 8-19 13-34 15 1-10 2-20 3-30z" fill="#b26bff" opacity="0.85"/>
  <path d="M36 92c18 2 34-6 48-23" stroke="#f4ebff" stroke-width="5" stroke-linecap="round" fill="none"/>
</svg>
